<?xml version="1.0" encoding="UTF-8"?><!DOCTYPE svg PUBLIC "-//W3C//DTD SVG 1.1//EN" "http://www.w3.org/Graphics/SVG/1.1/DTD/svg11.dtd"><svg xmlns="http://www.w3.org/2000/svg" xmlns:xlink="http://www.w3.org/1999/xlink"><symbol id="icon-cat-pro" viewBox="0 0 134 56">
  <path d="M123.1 5.8c1.2-1.9 2.7-3.4 4.5-4.6 1-.7 1.6-.7 2.2.6.8 1.9 1.5 3.9.9 6-.2.8-.1 1.4.4 2.1.6.8 1.1 1.6 1.6 2.3 1.3 1.9 1.8 3.9.9 6.2-.4 1-.4 2-.2 3.1.2 1 .2 2 0 3-.3 1.6-1.1 2.7-2.7 3.2-1.3.3-2.4.9-3.2 2-.2.3-.5.5-.9.5-1.2.2-4.2-2.5-4.2-3.7v-.6c.1-3.6-.1-3.9-3.4-5.4-.7-.3-1.3-.6-1.8-1.2-.6-.8-1.4-.7-2.3-.4-.8.4-1.4.9-1.3 1.9.3 2.4.4 4.8.3 7.3 0 .3.1.6.2.8 3.1 4.5 4.3 9.8 5.8 14.9 1.2 3.9 3.4 6 7.4 6.3.6 0 1.3.2 1.9.3 1.8.3 2.9 1.5 3.4 3.2.7 2.1.3 2.6-1.8 2.6h-6.5c-.9 0-1.6-.2-2.3-.8-1-1-2.2-1.4-3.4-2-1.3-.6-2.6-1.3-3.4-2.6-1.1-1.7-2.6-3.1-4-4.5-2.8-2.9-5.8-5.7-8.4-8.7-1.9-2.2-3.2-4.6-3.2-7.6 0-.9-.2-1.3-1.2-.9-.3.2-.7.3-1 .3-2.8 0-4.2 1.7-5.2 4.2-.9 2.1-2.1 4.1-3.2 6.2-.5 1.1-1 2.6-1 4.2 0 2.4.6 3.2 2.8 4 1.4.5 2.7 1 3.4 2.4.8 1.6.6 2-1.1 2.1h-6.8c-.9 0-1.5-.3-1.9-1.1l-1.8-3c-1-1.7-1.4-3.4-.7-5.4.6-1.7.3-3.6.1-5.3-.4-2.6 0-4.9 1.7-7 .6-.7.6-1-.4-1.2-4.1-.8-8-2.3-11.8-4.1 0 0-.1 0-.1-.1-3.2-1.2-3.8-1-4.7 2.3-.8 2.8-1.6 5.6-2.2 8.5-.7 3.2.1 6.2 1.1 9.2.4 1.2 1.6 1.1 2.5 1.4 2 .6 3.7 1.4 4.5 3.5.7 1.6.6 1.8-1.1 1.8-1.7 0-3.4-.1-5.2 0-1.6.1-2.8-.5-4.2-1.4-4.8-3.2-6.2-8.1-6.6-13.4-.2-3.3-2-5.9-4.1-8.4-.4-.5-.8-.7-1.4-.3-2.1 1.3-4.5 2.1-6.7 3-4.8 1.8-9 4.6-12.2 8.8-1.2 1.5-1.9 3.2-2.2 5.1-.3 1.8.2 2.6 2 3.1 1.9.6 2.7 1.5 2.9 3.4.1.8-.2 1.2-1 1.2h-8.1c-.6 0-1-.4-1.3-.8-1.3-1.6-1.9-3.5-1.9-5.5-.1-3.5.3-6.9.9-10.3.4-2.1 1.4-3.8 3.4-4.8 5.9-2.8 9-8.1 11.8-13.6.6-1.1.1-1.3-.9-1.2-2.9.3-5.4 1.6-7.7 3.2-3 2.1-5.7 4.6-8.3 7.1-2.9 2.7-6.2 4.6-10.3 4.9C3.1 32.5-.3 28.4 0 21.8c.1-2.3.9-4.4 2.4-6.1 1.2-1.3 2.6-2 4.5-1.5 1.5.4 1.9 1.2 1.3 2.7-.3.6-.7 1.1-1 1.7-.4.6-.8 1.3-1 2-1.1 3 .4 5.1 3.5 5.4 3.3.3 6-1.1 8.5-3.1 3-2.4 5.7-5.2 8-8.3 3.7-4.8 8.5-7.3 14.4-8.1 2.3-.3 4.3-1.3 6.5-1.9 4.1-1.2 8.3-1.9 12.7-1.8 2 .1 3.9-.3 5.8-1.1 4.9-2 10-2 15.1-1 4 .8 8 1.8 11.9 2.8 2.2.5 4.7.3 7-.2 4.4-1 8.9-1.9 13.4-2 3-.1 5.9.4 8.6 1.7 2 .9 2 .9 1.5 2.8z"/>
</symbol>
<symbol id="icon-cat-slim" viewBox="0 0 70 97">
  <path d="M54.8 0h-.4c-.7.4-1.1.9-1.4 1.6-.6 1.1-1 2.3-1.3 3.4-.2.8-.7 1.2-1.5 1.3-2.3.4-4 1.7-5.2 3.7-.7 1.3-1.3 2.6-1.8 3.9-1.4 3.7-2.5 7.5-3.8 11.2-.7 1.9-.8 1.9-2.7 1.9-2.3 0-2.1-.4-2.1 2.1 0 .8.2 1.2 1.1 1.2.3 0 .7-.1.8.2.1.3-.2.5-.4.7-1.2 1.3-2.7 2-4.3 2.4-1.9.5-3.8.9-5.7 1.5-4.7 1.6-9.1 3.8-12.6 7.6-2.1 2.3-3.5 5-4.7 7.8-3.8 8.7-5.6 17.8-7 27-.6 4.3-1.1 8.6-1.5 13C.2 92.7 0 94.8 0 97h33.3c.1-.5-.1-.9-.2-1.3-.7-1.8-2.1-2.7-3.8-3.1-.7-.2-.8-.4-.4-.9.7-.9 1.2-2 1.6-3.1 1.6-4.8 2.3-9.8 3.1-14.8.6-3.8 1.5-7.4 3.4-10.8 1.5-2.5 3.3-4.6 5.6-6.4.8-.6.9-.6 1 .4.1.7.1 1.4.2 2.2.3 4.7.3 9.5-.2 14.2-.3 3.7-.5 7.4-.2 11 .4 4.3 1.2 8.4 2.2 12.6h13.3c-.3-2.2-2.1-4-4.2-4.4-1.3-.2-2.5-.1-3.8.2-.6.1-.8 0-.9-.6-.4-5.3-.1-10.6 1-15.8 1.3-6 2.4-12.1 3.1-18.2.3-2.5 1-4.8 2.3-7 1.2-2.1 2.2-4.3 3.4-6.5.9-1.7 1.1-3.4.4-5.2-.3-.7-.5-1.4-.9-2.1-1-2-2-3.9-2.9-5.9-.5-1-.4-1.1.7-1.1 1.6 0 1.6 0 1.7-1.6v-.7c0-.7-.3-1.1-1-1h-1.5c-.7 0-.9-.3-.7-1 .6-2.3 2.8-4.1 5.1-4.4 2.2-.3 4.4 0 6.6.4.6.1 1 0 1.3-.6.4-1 .8-2 1.3-3 .2-.4.2-.8-.1-1.1-3.2-4.2-6.7-8-11.4-10.4-.5-.3-.8-.6-.9-1.1-.3-1.4-.7-2.8-1.3-4.2-.3-.7-.6-1.3-1.4-1.7z"/>
</symbol>
<symbol id="icon-close" viewBox="0 0 18 18">
  <path d="M18 1.3L16.7 0 9 7.7 1.3 0 0 1.3 7.7 9 0 16.7 1.3 18 9 10.3l7.7 7.7 1.3-1.3L10.3 9z"/>
</symbol>
<symbol id="icon-fb">
  <path d="M11.5.833H8.75A4.63 4.63 0 005.51 2.15a4.45 4.45 0 00-1.343 3.177v2.697h-2.75v3.595h2.75v7.191h3.666v-7.19h2.75l.917-3.596H7.833V5.327a.89.89 0 01.269-.635.926.926 0 01.648-.263h2.75V.833z" stroke="#666" stroke-width="1.1" stroke-linecap="round" stroke-linejoin="round"/>
</symbol>
<symbol id="icon-gift" viewBox="0 0 55.5 60">
  <path d="M52.3 12.2h-7c.5-.7.8-1.4 1.1-2.2.6-2 .4-4.1-.6-5.9-1-1.8-2.6-3.1-4.6-3.7-2-.6-4.1-.4-5.9.6-3.6 2-6.2 6.1-7.6 9-1.4-2.9-4-7.1-7.6-9-3.8-2-8.5-.6-10.5 3.1-1.4 2.7-1.2 5.8.5 8.1h-7c-1.7 0-3.1 1.4-3.1 3.1v9.4c0 1.7 1.4 3.1 3.1 3.1H4v26.1c0 3.3 2.7 6 6 6h35.5c3.3 0 6-2.7 6-6V27.8h.8c1.7 0 3.1-1.4 3.1-3.1v-9.4c.1-1.7-1.3-3.1-3.1-3.1zM36.5 3c1.3-.7 2.7-.8 4.1-.4 1.3.4 2.4 1.3 3.1 2.6.7 1.3.8 2.7.4 4.1-.4 1.2-1.1 2.2-2.2 2.9H29.4C30.5 9.6 33 5 36.5 3zM11.7 5.2C13.2 2.6 16.4 1.6 19 3c3.5 1.9 6 6.6 7.1 9.1H13.5c-2.3-1.4-3.1-4.5-1.8-6.9zm14.8 22.6v13.7H6.4V27.8h20.1zM6.4 53.9v-10h20.2v13.7H10c-2 0-3.6-1.7-3.6-3.7zm39.1 3.7H28.9V43.9h20.2v10c0 2-1.6 3.7-3.6 3.7zm3.6-16.1H28.9V27.8h20.2v13.7zm4-16.8c0 .4-.3.7-.7.7H3.2c-.4 0-.7-.3-.7-.7v-9.4c0-.4.3-.7.7-.7h49.2c.4 0 .7.3.7.7v9.4z"/>
</symbol>
<symbol id="icon-insta">
  <path d="M7.984.063c1.334 0 2.422.015 3.266.046.719.032 1.36.157 1.922.375.541.209 1.01.51 1.406.907.396.395.698.864.906 1.406.22.562.344 1.203.375 1.922.032.843.047 1.932.047 3.265 0 1.334-.015 2.422-.047 3.266-.03.719-.156 1.36-.375 1.922a3.987 3.987 0 01-.906 1.406 3.987 3.987 0 01-1.406.906c-.563.22-1.203.344-1.922.375-.844.032-1.932.047-3.266.047a91.88 91.88 0 01-3.265-.047c-.719-.03-1.36-.156-1.922-.375a3.987 3.987 0 01-1.406-.906 3.987 3.987 0 01-.907-1.406C.266 12.609.141 11.969.11 11.25a91.735 91.735 0 01-.046-3.266c0-1.333.015-2.421.046-3.265.032-.719.157-1.36.375-1.922.209-.542.51-1.01.907-1.406A3.987 3.987 0 012.797.484C3.359.266 4 .141 4.719.11A91.733 91.733 0 017.984.063zm0 1.03c-1.385 0-2.515.016-3.39.048-.563.02-1.084.12-1.563.296a2.853 2.853 0 00-1.594 1.594c-.177.48-.276 1-.296 1.563a98.83 98.83 0 00-.047 3.39c0 1.386.015 2.516.047 3.391.02.563.12 1.083.296 1.563.313.75.844 1.28 1.594 1.593.48.177 1 .276 1.563.297.875.031 2.005.047 3.39.047 1.386 0 2.516-.016 3.391-.047a5.015 5.015 0 001.563-.297 2.852 2.852 0 001.593-1.594c.177-.479.276-1 .297-1.562.031-.875.047-2.005.047-3.39 0-1.386-.016-2.516-.047-3.391a5.015 5.015 0 00-.297-1.563 2.853 2.853 0 00-1.594-1.594c-.479-.177-1-.276-1.562-.296a98.803 98.803 0 00-3.39-.047zm0 10.063c.875 0 1.623-.31 2.243-.93.62-.62.93-1.367.93-2.242s-.31-1.622-.93-2.242a3.056 3.056 0 00-2.243-.93c-.875 0-1.622.31-2.242.93-.62.62-.93 1.367-.93 2.242s.31 1.623.93 2.243c.62.62 1.367.93 2.242.93zm0-7.234c1.125 0 2.084.396 2.875 1.187.792.792 1.188 1.75 1.188 2.875s-.396 2.084-1.188 2.875c-.791.792-1.75 1.188-2.875 1.188s-2.083-.396-2.875-1.188c-.791-.791-1.187-1.75-1.187-2.875s.396-2.083 1.187-2.875c.792-.791 1.75-1.187 2.875-1.187zm5.188-.156c0 .26-.094.481-.281.664a.949.949 0 01-.688.273.904.904 0 01-.664-.273.904.904 0 01-.273-.664c0-.271.09-.5.273-.688a.891.891 0 01.664-.281.93.93 0 01.68.289.93.93 0 01.289.68z" fill="#666"/>
</symbol>
<symbol id="icon-mail" viewBox="0 0 17 13">
  <path d="M15.6 11.6H1.4V5.8H0V13h17V5.8h-1.4v5.8zM0 0v2.3l8.5 7.1L17 2.3V0H0zm15.6 1.6L8.5 7.5 1.4 1.6v-.2h14.2v.2z"/>
</symbol>
<symbol id="icon-phone" viewBox="0 0 20 20">
  <path d="M17.9 9.4H9.4v1.2h8.5l-2.1 2.1.9.9 3.1-3.1c.2-.2.2-.6 0-.9l-3.1-3.1-.9.9 2.1 2zM8.1 19.4v-6.2c0-.3-.3-.6-.6-.6H3.1c0 .7.6 1.2 1.2 1.2h2.5v5H3.1c-1 .1-1.8-.7-1.9-1.7v-14c0-1 .8-1.8 1.7-1.8H6.8v5H4.4c-.7 0-1.2.6-1.2 1.2h4.4c.3 0 .6-.3.6-.6V.6C8.1.3 7.8 0 7.5 0H3.1C1.5-.1.1 1.2 0 2.9V16.8c-.1 1.7 1.2 3.1 2.9 3.1H7.5c.3.1.6-.2.6-.5z"/>
</symbol>
<symbol id="icon-plus-mobile" viewBox="0 0 30 30">
  <path fill="#231f20" d="M30 14H16V0h-2v14H0v2h14v14h2V16h14z"/>
</symbol>
<symbol id="icon-plus" viewBox="0 0 60 60">
  <path fill="#231f20" d="M60 29.5H30.5V0h-1v29.5H0v1h29.5V60h1V30.5H60z"/>
</symbol>
<symbol id="icon-right-arrow-long" viewBox="0 0 24.2 11">
  <path fill="#3f4242" d="M17.6 0l6.6 5.5-6.6 5.5V6.6H0V4.4h17.6z"/>
</symbol>
<symbol id="icon-right-arrow-verylong" viewBox="0 0 32 11">
  <path fill="#3f4242" d="M25.4 0L32 5.5 25.4 11V6.6H0V4.4h25.4z"/>
</symbol>
<symbol id="icon-tick" viewBox="0 0 21.1 15.5">
  <path d="M20.1 0L7.7 13.3 1 6.1 0 7.2l7.6 8.2.1.1L21 1.2l.1-.1z"/>
</symbol>
<symbol id="icon-vk">
  <path d="M.07 1.993c0-.622.423-.957 1.27-1.006l3.26.018c.22 0 .365.091.438.274.336.915.711 1.704 1.127 2.369.416.664.96 1.43 1.63 2.295.059.11.154.165.285.165a.276.276 0 00.24-.128l.067-.201.021-3.164c0-.22-.062-.366-.186-.44-.124-.073-.353-.127-.689-.164-.263-.037-.394-.17-.394-.402 0-.05.007-.086.022-.11C7.467.706 8.343.31 9.787.31l1.226-.018c.554 0 1.014.116 1.379.347.364.232.547.598.547 1.098v4.151a.562.562 0 00.284.092c.22 0 .409-.11.57-.33 1.604-1.877 2.472-3.133 2.604-3.767a.29.29 0 01.044-.092c.102-.182.27-.34.503-.475.233-.134.438-.226.613-.274a.507.507 0 01.197-.037h3.392l.219.018c.292 0 .518.116.678.348a.63.63 0 01.12.238c.022.085.037.17.044.256.008.085.011.134.011.146v.128c-.102.5-.36 1.033-.777 1.6-.415.567-.944 1.18-1.586 1.838-.642.659-1.044 1.092-1.204 1.299-.131.146-.197.28-.197.402 0 .098.058.208.175.33l3.195 3.365a.939.939 0 01.263.64c0 .28-.131.512-.394.695a1.826 1.826 0 01-.941.31l-.372.02h-3.327a.794.794 0 00-.087.008.802.802 0 01-.088.01c-.32 0-.62-.116-.897-.348-.102-.098-.788-.817-2.057-2.158a1.107 1.107 0 00-.307-.238c-.058.195-.135.475-.23.841-.094.366-.164.628-.207.787l-.066.31c-.146.427-.452.684-.92.769l-.306.018H9.743c-1.21 0-2.418-.463-3.622-1.39-1.203-.927-2.287-2.125-3.25-3.594-.963-1.469-1.86-3.18-2.691-5.13a1.254 1.254 0 01-.11-.53zM13.223 6.73a1.66 1.66 0 01-.831-.21c-.248-.14-.372-.333-.372-.577V1.737c0-.244-.073-.418-.22-.522-.145-.103-.4-.155-.765-.155l-1.248.036c-.627 0-1.101.092-1.422.275.642.256.963.67.963 1.244v3.218c-.03.305-.175.558-.438.76a1.405 1.405 0 01-.875.301c-.438 0-.774-.177-1.007-.53C5.87 4.925 5.024 3.559 4.469 2.267l-.197-.476-2.91-.018c-.19 0-.296.01-.318.028-.022.018-.033.07-.033.155 0 .11.015.226.044.348l.46 1.024C2.74 5.974 4.07 8.058 5.509 9.583c1.437 1.524 2.848 2.286 4.234 2.286h2.189c.088 0 .153-.021.197-.064.044-.043.08-.125.11-.247l.043-.183.416-1.61c.117-.219.219-.365.306-.438a.86.86 0 01.57-.201c.35 0 .707.176 1.072.53l1.86 1.975c.117.159.24.238.372.238h3.611c.438 0 .657-.091.657-.274a.312.312 0 00-.066-.183l-3.173-3.31c-.248-.257-.372-.531-.372-.824 0-.292.116-.573.35-.841.19-.244.558-.65 1.105-1.216a28.203 28.203 0 001.434-1.591c.408-.494.678-.942.81-1.345l.065-.237a.243.243 0 01-.022-.12c0-.054-.007-.1-.022-.137H17.82a1.199 1.199 0 00-.525.33l-.131.347c-.365.841-1.32 2.14-2.867 3.896a1.672 1.672 0 01-1.073.366z" fill="#666"/>
</symbol>
</svg>
